<svg aria-hidden="true" style="position: absolute; width: 0; height: 0; overflow: hidden;" version="1.1"
	xmlns="http://www.w3.org/2000/svg"
	xmlns:xlink="http://www.w3.org/1999/xlink">
	<defs>
		<symbol id="icon-right-chevron" class = "chevron" viewBox="0 0 23 32">
			<path d="M4.682 0l18.311 15.752-18.077 16.248-4.341-4.895 12.032-11.066-12.608-10.857 4.682-5.182z"></path>
		</symbol>
		<symbol id="icon-left-chevron" class = "chevron" viewBox="0 0 23 32">
			<path d="M18.311 32l-18.311-15.752 18.077-16.248 4.341 4.895-12.032 11.066 12.608 10.857-4.682 5.182z"></path>
		</symbol>
		<symbol id="icon-Green-logo-main" viewBox="0 0 32 32">
			<path d="M3.171 2.923l1.024 8.001c-0.076 0.823 0.914 0.849 1.214 0.368l2.168-4.925 2.349 4.944c0.276 0.51 1.136 0.315 1.239-0.585l0.872-7.914-1.167 0.029-0.796 5.626-1.774-3.666c-0.227-0.684-0.991-0.875-1.334 0.053l-1.807 3.575-0.616-5.444-1.37-0.062z"></path>
			<path d="M17.308 3.052h1.414l-2.162 4.509 2.223 3.92h-1.474l-2.257-3.851 2.257-4.578z"></path>
			<path d="M21.724 3.066l0.95-0.382-2.471 9.206-0.971 0.493 2.493-9.317z"></path>
			<path d="M25.159 11.481h-1.414l2.162-4.509-2.223-3.92h1.474l2.257 3.851-2.257 4.578z"></path>
			<path d="M13.020 2.812h1.45v8.797h-1.45v-8.797z"></path>
		</symbol>
		<symbol id="icon-linkedin" viewBox="0 0 24 28">
			<path d="M5.453 9.766v15.484h-5.156v-15.484h5.156zM5.781 4.984c0.016 1.484-1.109 2.672-2.906 2.672v0h-0.031c-1.734 0-2.844-1.188-2.844-2.672 0-1.516 1.156-2.672 2.906-2.672 1.766 0 2.859 1.156 2.875 2.672zM24 16.375v8.875h-5.141v-8.281c0-2.078-0.75-3.5-2.609-3.5-1.422 0-2.266 0.953-2.641 1.875-0.125 0.344-0.172 0.797-0.172 1.266v8.641h-5.141c0.063-14.031 0-15.484 0-15.484h5.141v2.25h-0.031c0.672-1.062 1.891-2.609 4.672-2.609 3.391 0 5.922 2.219 5.922 6.969z"></path>
		</symbol>
		<symbol id="icon-menu" viewBox="0 0 32 32">
			<path d="M2 6h28v6h-28zM2 14h28v6h-28zM2 22h28v6h-28z"></path>
		</symbol>
		<symbol id="icon-facebook2" viewBox="0 0 32 32">
			<path d="M29 0h-26c-1.65 0-3 1.35-3 3v26c0 1.65 1.35 3 3 3h13v-14h-4v-4h4v-2c0-3.306 2.694-6 6-6h4v4h-4c-1.1 0-2 0.9-2 2v2h6l-1 4h-5v14h9c1.65 0 3-1.35 3-3v-26c0-1.65-1.35-3-3-3z"></path>
		</symbol>
		<symbol id="icon-github" viewBox="0 0 32 32">
			<path d="M16 0.395c-8.836 0-16 7.163-16 16 0 7.069 4.585 13.067 10.942 15.182 0.8 0.148 1.094-0.347 1.094-0.77 0-0.381-0.015-1.642-0.022-2.979-4.452 0.968-5.391-1.888-5.391-1.888-0.728-1.849-1.776-2.341-1.776-2.341-1.452-0.993 0.11-0.973 0.11-0.973 1.606 0.113 2.452 1.649 2.452 1.649 1.427 2.446 3.743 1.739 4.656 1.33 0.143-1.034 0.558-1.74 1.016-2.14-3.554-0.404-7.29-1.777-7.29-7.907 0-1.747 0.625-3.174 1.649-4.295-0.166-0.403-0.714-2.030 0.155-4.234 0 0 1.344-0.43 4.401 1.64 1.276-0.355 2.645-0.532 4.005-0.539 1.359 0.006 2.729 0.184 4.008 0.539 3.054-2.070 4.395-1.64 4.395-1.64 0.871 2.204 0.323 3.831 0.157 4.234 1.026 1.12 1.647 2.548 1.647 4.295 0 6.145-3.743 7.498-7.306 7.895 0.574 0.497 1.085 1.47 1.085 2.963 0 2.141-0.019 3.864-0.019 4.391 0 0.426 0.288 0.925 1.099 0.768 6.354-2.118 10.933-8.113 10.933-15.18 0-8.837-7.164-16-16-16z"></path>
		</symbol>
		<symbol id="icon-envelope" viewBox="0 0 32 32">
			<path d="M29 4h-26c-1.65 0-3 1.35-3 3v20c0 1.65 1.35 3 3 3h26c1.65 0 3-1.35 3-3v-20c0-1.65-1.35-3-3-3zM12.461 17.199l-8.461 6.59v-15.676l8.461 9.086zM5.512 8h20.976l-10.488 7.875-10.488-7.875zM12.79 17.553l3.21 3.447 3.21-3.447 6.58 8.447h-19.579l6.58-8.447zM19.539 17.199l8.461-9.086v15.676l-8.461-6.59z"></path>
		</symbol>
	</defs>
</svg>
