<!-- Generated by IcoMoon.io -->
<svg version="1.1" xmlns="http://www.w3.org/2000/svg" width="32" height="32" viewBox="0 0 32 32">
<title>Green-logo-main</title>
<path d="M3.171 2.923l1.024 8.001c-0.076 0.823 0.914 0.849 1.214 0.368l2.168-4.925 2.349 4.944c0.276 0.51 1.136 0.315 1.239-0.585l0.872-7.914-1.167 0.029-0.796 5.626-1.774-3.666c-0.227-0.684-0.991-0.875-1.334 0.053l-1.807 3.575-0.616-5.444-1.37-0.062z"></path>
<path d="M17.308 3.052h1.414l-2.162 4.509 2.223 3.92h-1.474l-2.257-3.851 2.257-4.578z"></path>
<path d="M21.724 3.066l0.95-0.382-2.471 9.206-0.971 0.493 2.493-9.317z"></path>
<path d="M25.159 11.481h-1.414l2.162-4.509-2.223-3.92h1.474l2.257 3.851-2.257 4.578z"></path>
<path d="M13.020 2.812h1.45v8.797h-1.45v-8.797z"></path>
</svg>
